<?xml version="1.0" encoding="iso-8859-1"?>
<!-- Generator: Adobe Illustrator 19.0.0, SVG Export Plug-In . SVG Version: 6.00 Build 0)  -->
<svg version="1.1" id="Capa_1" xmlns="http://www.w3.org/2000/svg" xmlns:xlink="http://www.w3.org/1999/xlink" x="0px" y="0px"
	 viewBox="0 0 512 512" style="enable-background:new 0 0 512 512;fill:#1DACE8" xml:space="preserve">
<g>
	<g>
		<g>
			<path d="M314.707,392.121c22.158-85.542-29.225-172.851-114.767-195.009V64h24c4.418,0,8-3.582,8-8V16h16V0h-24h-128h-24v16h16
				v40c0,4.418,3.582,8,8,8h24v133.112C49.399,215.384,0.116,279.011,0.061,351.879C-0.006,440.245,71.574,511.933,159.94,512
				C232.808,511.945,296.434,462.661,314.707,392.121z M190.268,492.796c-77.745,16.75-154.348-32.697-171.098-110.442
				s32.697-154.348,110.442-171.098c3.688-0.788,6.325-4.045,6.328-7.816V64h24V48h-32h-24V16h112v32h-24c-4.418,0-8,3.582-8,8
				v147.44c0.003,3.771,2.64,7.028,6.328,7.816c55.316,11.917,98.525,55.126,110.442,110.442
				C317.459,399.443,268.013,476.046,190.268,492.796z"/>
			<path d="M260.388,305.344c-16.927-12.463-39.993-12.463-56.92,0c-11.536,8.873-27.6,8.873-39.136,0
				c-16.905-12.458-39.951-12.458-56.856,0c-5.528,4.445-12.444,6.802-19.536,6.656c-7.1,0.152-14.026-2.205-19.56-6.656
				c-0.429-0.286-0.885-0.531-1.361-0.729c-4.078-1.7-8.762,0.227-10.463,4.305c-5.688,13.651-8.617,28.292-8.617,43.081
				c0,61.856,50.145,112,112.001,111.999c14.792,0.003,29.439-2.925,43.093-8.613c57.099-23.788,84.103-89.36,60.315-146.459
				C262.735,307.468,261.705,306.221,260.388,305.344z M251.706,380.159c-15.563,50.684-69.267,79.155-119.95,63.592
				C81.071,428.187,52.6,374.484,68.164,323.8c6.18,2.905,12.948,4.343,19.776,4.2c10.255,0.151,20.266-3.138,28.432-9.344
				c11.524-8.874,27.58-8.874,39.104,0c16.92,12.447,39.968,12.447,56.888,0c5.543-4.446,12.472-6.802,19.576-6.656
				c6.266-0.204,12.425,1.666,17.52,5.32C257.241,337.42,258.032,359.554,251.706,380.159z"/>
			<path d="M95.94,352h-16c0.049,44.163,35.837,79.951,80,80v-16C124.61,415.96,95.979,387.33,95.94,352z"/>
			<path d="M488.972,0h-82.064c-12.679,0.013-22.955,10.289-22.968,22.968v42.403c-2.503-0.885-5.194-1.371-8-1.371h-80
				c-13.255,0-24,10.745-24,24v128h16V88c0-4.418,3.582-8,8-8h80c4.418,0,8,3.582,8,8v328h-48v16h48v56c0,4.418-3.582,8-8,8h-80
				c-4.418,0-8-3.582-8-8v-8h-16v8c0,13.255,10.745,24,24,24h80c5.998,0,11.477-2.205,15.684-5.842
				c4.06,3.627,9.413,5.836,15.284,5.842h82.064c12.679-0.013,22.955-10.289,22.968-22.968V22.968
				C511.926,10.289,501.651,0.013,488.972,0z M495.94,489.032c-0.004,3.846-3.121,6.964-6.968,6.968h-82.064
				c-3.846-0.004-6.964-3.122-6.968-6.968V488V88V22.968c0.004-3.846,3.122-6.964,6.968-6.968h82.064
				c3.846,0.004,6.964,3.122,6.968,6.968V489.032z"/>
			<path d="M471.94,40h-48c-4.418,0-8,3.582-8,8v256c0,4.418,3.582,8,8,8h48c4.418,0,8-3.582,8-8V48
				C479.94,43.582,476.358,40,471.94,40z M463.94,296h-32V56h32V296z"/>
			<rect x="303.94" y="456" width="64" height="16"/>
			<rect x="415.94" y="328" width="64" height="16"/>
			<rect x="415.94" y="360" width="16" height="16"/>
			<rect x="463.94" y="360" width="16" height="16"/>
			<rect x="415.94" y="456" width="64" height="16"/>
			<rect x="415.94" y="424" width="64" height="16"/>
			<rect x="415.94" y="392" width="64" height="16"/>
			<path d="M335.94,176c17.673,0,32-14.327,32-32s-14.327-32-32-32c-17.673,0-32,14.327-32,32S318.266,176,335.94,176z M335.94,128
				c8.837,0,16,7.163,16,16s-7.163,16-16,16s-16-7.163-16-16S327.103,128,335.94,128z"/>
			<path d="M303.94,256h16v-32h32v144h-16v16h24c4.418,0,8-3.582,8-8V216c0-4.418-3.582-8-8-8h-48c-4.418,0-8,3.582-8,8V256z"/>
		</g>
	</g>
</g>
<g>
</g>
<g>
</g>
<g>
</g>
<g>
</g>
<g>
</g>
<g>
</g>
<g>
</g>
<g>
</g>
<g>
</g>
<g>
</g>
<g>
</g>
<g>
</g>
<g>
</g>
<g>
</g>
<g>
</g>
</svg>
