<?xml version="1.0" encoding="iso-8859-1"?>
<!-- Generator: Adobe Illustrator 19.0.0, SVG Export Plug-In . SVG Version: 6.00 Build 0)  -->
<svg version="1.1" id="Capa_1" xmlns="http://www.w3.org/2000/svg" xmlns:xlink="http://www.w3.org/1999/xlink" x="0px" y="0px"
	 viewBox="0 0 483.788 483.788" style="enable-background:new 0 0 483.788 483.788;" xml:space="preserve">
<g>
	<polygon style="fill:#D4E1F4;" points="413.257,15.673 419.527,65.306 419.004,65.306 350.563,65.306 349.518,65.306 
		355.788,15.673 	"/>
	<rect x="337.502" y="341.682" style="fill:#D4E1F4;" width="70.008" height="60.082"/>
	<rect x="206.89" y="341.682" style="fill:#D4E1F4;" width="70.008" height="60.082"/>
	<rect x="76.8" y="341.682" style="fill:#D4E1F4;" width="70.008" height="60.082"/>
	<polygon style="fill:#D4E1F4;" points="419.527,65.306 425.273,110.237 424.229,110.237 345.861,110.237 343.771,109.714 
		349.518,65.306 350.563,65.306 419.004,65.306 	"/>
</g>
<g>
	<polygon style="fill:#4DCFE0;" points="425.273,110.237 443.559,249.731 325.486,249.731 343.771,109.714 345.861,110.237 
		424.229,110.237 	"/>
	<path style="fill:#4DCFE0;" d="M462.367,249.731v218.384H21.42V249.731l90.906-50.678v50.678l90.906-50.678v49.633l99.788-49.633
		v50.678h22.465h118.073H462.367z M407.51,401.763v-60.082h-70.008v60.082H407.51z M276.898,401.763v-60.082H206.89v60.082H276.898z
		 M146.808,401.763v-60.082H76.8v60.082H146.808z"/>
</g>
<g>
	<path style="fill:#3A2C51;" d="M146.808,417.437H76.8c-8.882,0-15.673-6.792-15.673-15.673v-60.082
		c0-8.882,6.792-15.673,15.673-15.673h70.008c8.882,0,15.673,6.792,15.673,15.673v60.082
		C162.482,410.645,155.69,417.437,146.808,417.437z M92.473,386.09h38.661v-28.735H92.473V386.09z"/>
	<path style="fill:#3A2C51;" d="M276.898,417.437H206.89c-8.882,0-15.673-6.792-15.673-15.673v-60.082
		c0-8.882,6.792-15.673,15.673-15.673h70.008c8.882,0,15.673,6.792,15.673,15.673v60.082
		C292.571,410.645,285.78,417.437,276.898,417.437z M222.563,386.09h38.661v-28.735h-38.661V386.09z"/>
	<path style="fill:#3A2C51;" d="M407.51,417.437h-70.008c-8.882,0-15.673-6.792-15.673-15.673v-60.082
		c0-8.882,6.792-15.673,15.673-15.673h70.008c8.882,0,15.673,6.792,15.673,15.673v60.082
		C423.184,410.645,416.392,417.437,407.51,417.437z M353.176,386.09h38.661v-28.735h-38.661V386.09z"/>
	<path style="fill:#3A2C51;" d="M462.367,234.057h-5.224l-16.718-125.91l-11.494-94.563C427.886,5.747,421.094,0,413.257,0h-57.469
		c-7.837,0-14.629,5.747-15.673,13.584l-6.269,49.633l-16.718,129.045c-1.045-2.612-3.135-5.224-5.747-6.792
		c-4.702-2.612-10.449-3.135-15.151-0.522l-77.322,38.139v-24.555c0-5.747-3.135-10.449-7.837-13.584
		c-4.702-2.612-10.971-3.135-15.673,0L128,222.563v-24.033c0-5.747-3.135-10.449-7.837-13.584c-4.702-2.612-10.971-3.135-15.673,0
		l-90.906,51.2c-5.224,2.612-7.837,7.837-7.837,13.584v218.384c0,8.882,6.792,15.673,15.673,15.673h440.947
		c8.882,0,15.673-6.792,15.673-15.673V249.731C478.041,240.849,471.249,234.057,462.367,234.057z M407.51,94.563h-45.976
		l1.567-13.584h42.841L407.51,94.563z M399.673,31.347l2.612,18.286h-35.004l2.09-18.286H399.673z M357.355,125.91h54.335
		l14.106,108.147h-82.547L357.355,125.91z M446.694,452.441h-409.6V259.135l59.559-33.437v24.033c0,5.747,3.135,10.449,7.837,13.584
		c4.702,2.612,10.971,3.135,15.673,0l67.396-37.616v22.988c0,5.224,2.612,10.449,7.314,13.061
		c4.702,2.612,10.449,3.135,15.151,0.522l77.322-38.139v25.6c0,8.882,6.792,15.673,15.673,15.673h143.673V452.441z"/>
</g>
<g>
</g>
<g>
</g>
<g>
</g>
<g>
</g>
<g>
</g>
<g>
</g>
<g>
</g>
<g>
</g>
<g>
</g>
<g>
</g>
<g>
</g>
<g>
</g>
<g>
</g>
<g>
</g>
<g>
</g>
</svg>
