<?xml version="1.0" encoding="iso-8859-1"?>
<!-- Generator: Adobe Illustrator 19.0.0, SVG Export Plug-In . SVG Version: 6.00 Build 0)  -->
<svg version="1.1" id="Capa_1" xmlns="http://www.w3.org/2000/svg" xmlns:xlink="http://www.w3.org/1999/xlink" x="0px" y="0px"
	 viewBox="0 0 501.551 501.551" style="enable-background:new 0 0 501.551 501.551;" xml:space="preserve">
<g>
	<path style="fill:#1185E0;" d="M303.02,355.265h-10.449v-31.347c0-8.882-6.792-15.673-15.673-15.673h-10.449v-31.347h10.449
		c8.882,0,15.673-6.792,15.673-15.673v-47.02h-31.347v31.347h-20.898v-31.347H208.98v47.02c0,8.882,6.792,15.673,15.673,15.673
		h10.449v31.347h-10.449c-8.882,0-15.673,6.792-15.673,15.673v31.347h-10.449c-8.882,0-15.673,6.792-15.673,15.673v83.592
		c0,8.882,6.792,15.673,15.673,15.673h104.49c8.882,0,15.673-6.792,15.673-15.673v-83.592
		C318.694,362.057,311.902,355.265,303.02,355.265z M240.327,339.592h20.898v15.673h-20.898V339.592z M287.347,438.857h-73.143
		v-52.245h73.143V438.857z"/>
	<path style="fill:#1185E0;" d="M485.878,355.265h-10.449v-31.347c0-8.882-6.792-15.673-15.673-15.673h-10.449V135.837
		c0-8.882-6.792-15.673-15.673-15.673h-83.592v31.347h67.918v156.735H407.51c-8.882,0-15.673,6.792-15.673,15.673v31.347h-10.449
		c-8.882,0-15.673,6.792-15.673,15.673v83.592c0,8.882,6.792,15.673,15.673,15.673h104.49c8.882,0,15.673-6.792,15.673-15.673
		v-83.592C501.551,362.057,494.759,355.265,485.878,355.265z M423.184,339.592h20.898v15.673h-20.898V339.592z M470.204,438.857
		h-73.143v-52.245h73.143V438.857z"/>
	<path style="fill:#1185E0;" d="M52.245,135.837v172.408H41.796c-8.882,0-15.673,6.792-15.673,15.673v31.347H15.673
		C6.792,355.265,0,362.057,0,370.939v83.592c0,8.882,6.792,15.673,15.673,15.673h104.49c8.882,0,15.673-6.792,15.673-15.673v-83.592
		c0-8.882-6.792-15.673-15.673-15.673h-10.449v-31.347c0-8.882-6.792-15.673-15.673-15.673H83.592V151.51h57.469v-31.347H67.918
		C59.037,120.163,52.245,126.955,52.245,135.837z M104.49,438.857H31.347v-52.245h73.143V438.857z M57.469,355.265v-15.673h20.898
		v15.673H57.469z"/>
</g>
<path style="fill:#4DCFE0;" d="M350.041,229.878h-208.98c-8.882,0-15.673-6.792-15.673-15.673V47.02
	c0-8.882,6.792-15.673,15.673-15.673h208.98c8.882,0,15.673,6.792,15.673,15.673v167.184
	C365.714,223.086,358.922,229.878,350.041,229.878z M156.735,198.531h177.633V62.694H156.735V198.531z"/>
<g>
</g>
<g>
</g>
<g>
</g>
<g>
</g>
<g>
</g>
<g>
</g>
<g>
</g>
<g>
</g>
<g>
</g>
<g>
</g>
<g>
</g>
<g>
</g>
<g>
</g>
<g>
</g>
<g>
</g>
</svg>
